<svg width="18" height="18" viewBox="0 0 18 18" fill="none" xmlns="http://www.w3.org/2000/svg">
<path d="M2.7 13.2859C2.10326 13.2859 1.53097 13.5117 1.10901 13.9135C0.687051 14.3153 0.45 14.8604 0.45 15.4287C0.45 15.997 0.687051 16.542 1.10901 16.9439C1.53097 17.3457 2.10326 17.5715 2.7 17.5715H17.1C16.5222 16.1959 16.5222 14.6615 17.1 13.2859H2.7Z" fill="#EAEFF0"/>
<path d="M2.7 17.5715H17.1C16.8137 16.89 16.6666 16.1627 16.6667 15.4287H0.45C0.45 15.997 0.687051 16.542 1.10901 16.9439C1.53097 17.3457 2.10326 17.5715 2.7 17.5715Z" fill="#D9E1E2"/>
<path d="M8.99991 12.8621C9.39497 13.1127 9.85901 13.2464 10.3337 13.2464C10.8084 13.2464 11.2725 13.1127 11.6675 12.8621C12.5336 12.3122 13.1904 11.511 13.5404 10.5774L14.4571 8.13465C14.6865 7.52275 14.7289 6.86136 14.5792 6.22744C14.4295 5.59352 14.094 5.01308 13.6115 4.55362C13.1571 4.12078 12.5894 3.81153 11.9673 3.65798C11.3451 3.50438 10.6911 3.5121 10.0732 3.68022L8.99991 3.97035L7.92666 3.67851C7.30867 3.51038 6.65474 3.50267 6.03257 3.65627C5.41044 3.80982 4.84272 4.11906 4.38831 4.55191C3.90587 5.01136 3.5703 5.5918 3.42059 6.22572C3.27092 6.85965 3.31331 7.52104 3.54276 8.13293L4.45941 10.5757C4.80947 11.5093 5.46624 12.3105 6.33231 12.8604C6.72737 13.111 7.19141 13.2447 7.66611 13.2447C8.14077 13.2447 8.60486 13.111 8.99991 12.8604V12.8621Z" fill="#FAC100"/>
<path d="M12.15 12.0002C11.1014 12.0017 10.0669 11.77 9.12884 11.3238C8.19072 10.8777 7.37487 10.2292 6.74613 9.43005C6.11734 8.63088 5.69304 7.70301 5.50697 6.72024C5.32085 5.73747 5.37804 4.72693 5.67401 3.76893C4.78656 4.08204 4.06481 4.71617 3.66575 5.53339C3.26664 6.35061 3.22241 7.28486 3.54276 8.13293L4.45941 10.5757C4.80947 11.5093 5.46624 12.3105 6.33231 12.8604C6.72737 13.111 7.19141 13.2447 7.66611 13.2447C8.14077 13.2447 8.60486 13.111 8.99991 12.8604C9.39497 13.111 9.8591 13.2447 10.3338 13.2447C10.8085 13.2447 11.2725 13.111 11.6676 12.8604C12.0547 12.6132 12.4023 12.3139 12.6994 11.972C12.5176 11.9878 12.3354 12.0002 12.15 12.0002Z" fill="#FF9500"/>
<path d="M9 3.12353V2.54797C9.00036 2.19299 9.11786 1.84708 9.33588 1.55916C9.55391 1.27124 9.86144 1.05585 10.215 0.943454L11.8292 0.429185L11.2892 1.96556C11.171 2.30263 10.9445 2.59576 10.6417 2.80343C10.3389 3.0111 9.97524 3.12278 9.6021 3.12267L9 3.12353Z" fill="#F87600"/>
<path d="M17.55 17.1429H17.4199C17.0212 16.0316 17.0212 14.8257 17.4199 13.7144H17.55C17.6693 13.7144 17.7838 13.6693 17.8682 13.5889C17.9526 13.5085 18 13.3995 18 13.2859C18 13.1722 17.9526 13.0632 17.8682 12.9828C17.7838 12.9025 17.6693 12.8573 17.55 12.8573H12.411C13.1146 12.286 13.6498 11.55 13.964 10.7218L14.8806 8.27903C15.1026 7.68753 15.1695 7.05335 15.0756 6.4316C14.9817 5.8099 14.7298 5.21939 14.3417 4.71146C13.9536 4.20358 13.4411 3.79362 12.8489 3.51724C12.2566 3.24086 11.6024 3.10642 10.9431 3.12563C11.3054 2.86718 11.576 2.50951 11.7189 2.10052L12.2562 0.564137C12.2827 0.488626 12.2865 0.407594 12.2673 0.330124C12.2481 0.252653 12.2066 0.181804 12.1475 0.125522C12.0884 0.0692349 12.014 0.0297391 11.9327 0.0114568C11.8513 -0.00682548 11.7662 -0.00316985 11.687 0.0220122L10.0737 0.536281C9.7902 0.626227 9.52866 0.769764 9.30483 0.958282C9.08096 1.1468 8.89938 1.37643 8.77095 1.63339C8.56836 1.18489 8.32392 0.75461 8.0406 0.347716C8.00797 0.300776 7.96599 0.260419 7.91699 0.228945C7.86798 0.197468 7.81295 0.175491 7.75503 0.164272C7.69712 0.153048 7.63745 0.152799 7.57944 0.163539C7.52139 0.174279 7.46618 0.195797 7.4169 0.226863C7.36763 0.257929 7.32524 0.297935 7.29221 0.344596C7.25913 0.391262 7.23604 0.443666 7.22425 0.498821C7.21251 0.553976 7.21224 0.610803 7.22349 0.666057C7.23479 0.721311 7.25738 0.773903 7.29 0.820843C7.83009 1.59277 8.20971 2.4562 8.40825 3.36433L8.04825 3.26662C7.33185 3.07212 6.57302 3.06939 5.85513 3.25873C5.1372 3.44807 4.48794 3.82216 3.97863 4.3399C3.46937 4.85764 3.11971 5.49902 2.96815 6.19363C2.81655 6.88823 2.86889 7.60919 3.1194 8.27732L4.03605 10.7201C4.34997 11.5489 4.8852 12.2855 5.589 12.8573H2.7C1.98392 12.8573 1.29716 13.1282 0.790812 13.6105C0.284463 14.0927 0 14.7467 0 15.4287C0 16.1106 0.284463 16.7646 0.790812 17.2469C1.29716 17.7291 1.98392 18 2.7 18H17.55C17.6693 18 17.7838 17.9548 17.8682 17.8745C17.9526 17.7941 18 17.6851 18 17.5714C18 17.4578 17.9526 17.3488 17.8682 17.2684C17.7838 17.1881 17.6693 17.1429 17.55 17.1429ZM9.45 2.54793C9.44987 2.28237 9.53757 2.02352 9.70065 1.80812C9.86373 1.59272 10.094 1.43171 10.3586 1.34797L11.1177 1.10669L10.8652 1.8301C10.7771 2.082 10.608 2.30111 10.3819 2.4564C10.1557 2.6117 9.88402 2.69529 9.60525 2.69535H9.45V2.54793ZM4.8834 10.4334L3.9663 7.99061C3.77104 7.47051 3.73014 6.90919 3.84809 6.36839C3.96603 5.82759 4.23823 5.3282 4.63482 4.92514C5.0314 4.52208 5.53698 4.23096 6.09597 4.08375C6.65501 3.93654 7.24581 3.93898 7.80345 4.09074L8.8767 4.38301C8.9573 4.40487 9.04271 4.40487 9.1233 4.38301L10.1966 4.09074C10.7542 3.93898 11.345 3.93654 11.904 4.08375C12.463 4.23096 12.9686 4.52208 13.3652 4.92514C13.7618 5.3282 14.034 5.82759 14.1519 6.36839C14.2699 6.90919 14.229 7.47051 14.0337 7.99061L13.1166 10.4334C12.7972 11.2791 12.2019 12.0052 11.4178 12.5055C11.097 12.7098 10.7198 12.8188 10.3338 12.8188C9.94783 12.8188 9.5706 12.7098 9.24975 12.5055C9.17582 12.4585 9.08887 12.4334 9 12.4334C8.91113 12.4334 8.82418 12.4585 8.75025 12.5055C8.4294 12.7098 8.05217 12.8188 7.6662 12.8188C7.28023 12.8188 6.903 12.7098 6.58215 12.5055C5.79812 12.0052 5.20281 11.2791 4.8834 10.4334ZM0.9 15.4287C0.9 14.974 1.08964 14.538 1.42721 14.2165C1.76477 13.895 2.22261 13.7144 2.7 13.7144H16.47C16.1289 14.8342 16.1289 16.0231 16.47 17.1429H2.7C2.22261 17.1429 1.76477 16.9623 1.42721 16.6408C1.08964 16.3193 0.9 15.8833 0.9 15.4287Z" fill="#6F6F6F"/>
<path d="M11.25 14.5716H3.15C3.03066 14.5716 2.91618 14.6168 2.8318 14.6971C2.74743 14.7775 2.7 14.8865 2.7 15.0001C2.7 15.1138 2.74743 15.2228 2.8318 15.3032C2.91618 15.3835 3.03066 15.4287 3.15 15.4287H11.25C11.3693 15.4287 11.4838 15.3835 11.5682 15.3032C11.6526 15.2228 11.7 15.1138 11.7 15.0001C11.7 14.8865 11.6526 14.7775 11.5682 14.6971C11.4838 14.6168 11.3693 14.5716 11.25 14.5716Z" fill="#6F6F6F"/>
<path d="M14.85 15.4287H13.05C12.9307 15.4287 12.8162 15.4739 12.7318 15.5542C12.6474 15.6346 12.6 15.7436 12.6 15.8573C12.6 15.9709 12.6474 16.0799 12.7318 16.1603C12.8162 16.2406 12.9307 16.2858 13.05 16.2858H14.85C14.9693 16.2858 15.0838 16.2406 15.1682 16.1603C15.2526 16.0799 15.3 15.9709 15.3 15.8573C15.3 15.7436 15.2526 15.6346 15.1682 15.5542C15.0838 15.4739 14.9693 15.4287 14.85 15.4287Z" fill="#6F6F6F"/>
<path d="M6.54831 10.3287C6.62504 10.3287 6.70046 10.3099 6.76737 10.2743C6.83433 10.2387 6.89063 10.1873 6.9309 10.1252C6.97113 10.063 6.99404 9.99202 6.99741 9.91908C7.00083 9.84609 6.98454 9.77349 6.95016 9.70818L6.33816 8.54293C6.29073 8.45212 6.24983 8.35836 6.21576 8.26223L6.12981 8.01538C5.96534 7.54144 5.96534 7.0297 6.12981 6.55571L6.27696 6.1353C6.29563 6.08186 6.30311 6.02542 6.29888 5.96919C6.29465 5.91301 6.2788 5.85815 6.2523 5.80775C6.22584 5.7574 6.18917 5.71248 6.14444 5.67559C6.09975 5.63869 6.04782 5.61053 5.99166 5.59275C5.93555 5.57496 5.87628 5.56789 5.81724 5.57192C5.75825 5.57595 5.70065 5.59103 5.64773 5.61623C5.59485 5.64147 5.54769 5.6764 5.50895 5.71896C5.4702 5.76155 5.44064 5.81101 5.42196 5.86445L5.27436 6.28487C5.04873 6.93469 5.04873 7.63645 5.27436 8.28623L5.36076 8.53393C5.40765 8.66854 5.46462 8.79973 5.53131 8.92649L6.14331 10.0917C6.18089 10.1633 6.23871 10.2234 6.31031 10.2654C6.38186 10.3072 6.46434 10.3292 6.54831 10.3287Z" fill="#6F6F6F"/>
</svg>
