<svg width="20" height="20" viewBox="0 0 20 20" fill="none" xmlns="http://www.w3.org/2000/svg">
<path opacity="0.9" d="M11.4556 10.014L19.6753 1.83001C20.0693 1.43949 20.0693 0.807261 19.6753 0.417738C19.2822 0.0272169 18.6437 0.0272169 18.2506 0.417738L10.0379 8.59472L1.74939 0.295888C1.35631 -0.0986292 0.717813 -0.0986292 0.324737 0.295888C-0.0683392 0.691403 -0.0683392 1.33162 0.324737 1.72614L8.60727 10.019L0.294807 18.2948C-0.0982691 18.6854 -0.0982691 19.3176 0.294807 19.7071C0.687883 20.0976 1.32638 20.0976 1.71946 19.7071L10.0249 11.4382L18.2805 19.7041C18.6736 20.0986 19.3121 20.0986 19.7052 19.7041C20.0983 19.3086 20.0983 18.6684 19.7052 18.2739L11.4556 10.014Z" fill="white"/>
</svg>
