<svg width="18" height="18" viewBox="0 0 18 18" fill="none" xmlns="http://www.w3.org/2000/svg">
<path d="M6.0752 16.2H11.9252V15.3C11.5672 15.3 11.2238 15.1578 10.9706 14.9046C10.7174 14.6514 10.5752 14.308 10.5752 13.95V12.438H7.4252V13.95C7.4252 14.308 7.28296 14.6514 7.02979 14.9046C6.77662 15.1578 6.43324 15.3 6.0752 15.3V16.2Z" fill="#F87600"/>
<path d="M13.5002 15.3H4.5002C4.02281 15.3 3.56497 15.4896 3.2274 15.8272C2.88984 16.1648 2.7002 16.6226 2.7002 17.1C2.7002 17.3387 2.79502 17.5676 2.9638 17.7364C3.13258 17.9052 3.3615 18 3.6002 18H14.4002C14.6389 18 14.8678 17.9052 15.0366 17.7364C15.2054 17.5676 15.3002 17.3387 15.3002 17.1C15.3002 16.6226 15.1106 16.1648 14.773 15.8272C14.4354 15.4896 13.9776 15.3 13.5002 15.3Z" fill="#FAC100"/>
<path d="M4.5002 17.1C4.5002 16.6226 4.68984 16.1648 5.0274 15.8272C5.36497 15.4896 5.82281 15.3 6.3002 15.3H4.5002C4.02281 15.3 3.56497 15.4896 3.2274 15.8272C2.88984 16.1648 2.7002 16.6226 2.7002 17.1C2.7002 17.3387 2.79502 17.5676 2.9638 17.7364C3.13258 17.9052 3.3615 18 3.6002 18H5.4002C5.1615 18 4.93258 17.9052 4.7638 17.7364C4.59502 17.5676 4.5002 17.3387 4.5002 17.1Z" fill="#FF9500"/>
<path d="M14.625 10.35H13.95C13.8307 10.35 13.7162 10.3026 13.6318 10.2182C13.5474 10.1338 13.5 10.0193 13.5 9.89998C13.5 9.78063 13.5474 9.66617 13.6318 9.58178C13.7162 9.49739 13.8307 9.44998 13.95 9.44998H14.625C15.2812 9.44926 15.9103 9.18827 16.3743 8.72428C16.8383 8.26028 17.0993 7.63117 17.1 6.97498V4.94998C17.1 4.83063 17.0526 4.71617 16.9682 4.63178C16.8838 4.54739 16.7693 4.49998 16.65 4.49998H14.4C14.2807 4.49998 14.1662 4.45256 14.0818 4.36817C13.9974 4.28378 13.95 4.16932 13.95 4.04998C13.95 3.93063 13.9974 3.81617 14.0818 3.73178C14.1662 3.64739 14.2807 3.59998 14.4 3.59998H16.65C17.008 3.59998 17.3514 3.74221 17.6046 3.99538C17.8578 4.24856 18 4.59193 18 4.94998V6.97498C17.999 7.86979 17.6432 8.72768 17.0104 9.36041C16.3777 9.99314 15.5198 10.349 14.625 10.35Z" fill="#FF9500"/>
<path d="M4.05 10.35H3.375C2.48019 10.349 1.6223 9.99314 0.989567 9.36041C0.356838 8.72768 0.000952943 7.86979 0 6.97498V4.94998C0 4.59193 0.142232 4.24856 0.395406 3.99538C0.64858 3.74221 0.991958 3.59998 1.35 3.59998H3.6C3.71935 3.59998 3.83381 3.64739 3.9182 3.73178C4.00259 3.81617 4.05 3.93063 4.05 4.04998C4.05 4.16932 4.00259 4.28378 3.9182 4.36817C3.83381 4.45256 3.71935 4.49998 3.6 4.49998H1.35C1.23065 4.49998 1.11619 4.54739 1.0318 4.63178C0.947411 4.71617 0.9 4.83063 0.9 4.94998V6.97498C0.900715 7.63117 1.1617 8.26028 1.6257 8.72428C2.0897 9.18827 2.71881 9.44926 3.375 9.44998H4.05C4.16935 9.44998 4.28381 9.49739 4.3682 9.58178C4.45259 9.66617 4.5 9.78063 4.5 9.89998C4.5 10.0193 4.45259 10.1338 4.3682 10.2182C4.28381 10.3026 4.16935 10.35 4.05 10.35Z" fill="#FF9500"/>
<path d="M13.9501 0H4.05012C3.69208 0 3.3487 0.142232 3.09553 0.395406C2.84235 0.64858 2.70012 0.991958 2.70012 1.35V7.09155C2.68777 8.77619 3.3441 10.397 4.52514 11.5983C5.70619 12.7997 7.31552 13.4836 9.00012 13.5C10.6847 13.4836 12.2941 12.7997 13.4751 11.5983C14.6561 10.397 15.3125 8.77619 15.3001 7.09155V1.35C15.3001 0.991958 15.1579 0.64858 14.9047 0.395406C14.6515 0.142232 14.3082 0 13.9501 0Z" fill="#FAC100"/>
<path d="M10.8001 12.15C9.11552 12.1336 7.50619 11.4497 6.32514 10.2483C5.1441 9.04696 4.48777 7.42619 4.50012 5.74155V0H4.05012C3.69208 0 3.3487 0.142232 3.09553 0.395406C2.84235 0.64858 2.70012 0.991958 2.70012 1.35V7.09155C2.68777 8.77619 3.3441 10.397 4.52514 11.5983C5.70619 12.7997 7.31552 13.4836 9.00012 13.5C9.85977 13.4983 10.7098 13.3187 11.4965 12.9723C12.2833 12.626 12.9899 12.1205 13.5717 11.4876C12.7122 11.9218 11.763 12.1487 10.8001 12.15Z" fill="#FF9500"/>
<path d="M11.681 5.2119C11.6616 5.15241 11.6281 5.09852 11.5832 5.05486C11.5384 5.0112 11.4836 4.97908 11.4236 4.96125L10.0988 4.5711L9.3181 3.4317C9.28071 3.38281 9.23256 3.3432 9.17739 3.31593C9.12221 3.28866 9.06149 3.27448 8.99995 3.27448C8.9384 3.27448 8.87768 3.28866 8.82251 3.31593C8.76733 3.3432 8.71918 3.38281 8.6818 3.4317L7.90105 4.5711L6.57625 4.96125C6.51619 4.97904 6.46136 5.01118 6.41649 5.05489C6.37162 5.0986 6.33806 5.15257 6.3187 5.21215C6.29934 5.27172 6.29477 5.33511 6.30538 5.39685C6.31599 5.45858 6.34146 5.51681 6.3796 5.5665L7.222 6.66L7.1842 8.0406C7.18247 8.10324 7.19603 8.16536 7.22371 8.22157C7.25139 8.27779 7.29235 8.32642 7.34305 8.36324C7.39375 8.40007 7.45266 8.42399 7.51468 8.43293C7.5767 8.44187 7.63996 8.43556 7.699 8.41455L8.99995 7.95285L10.3009 8.415C10.3424 8.42959 10.3861 8.43705 10.43 8.43705C10.4816 8.43713 10.5326 8.42687 10.5801 8.40687C10.6276 8.38686 10.6706 8.35753 10.7066 8.3206C10.7426 8.28367 10.7708 8.23991 10.7895 8.19189C10.8082 8.14387 10.8171 8.09258 10.8157 8.04105L10.7779 6.66L11.6203 5.5656C11.6582 5.51593 11.6836 5.45782 11.6941 5.39622C11.7047 5.33463 11.7002 5.27138 11.681 5.2119Z" fill="#FF9500"/>
</svg>
