<svg width="20" height="20" viewBox="0 0 20 20" fill="none" xmlns="http://www.w3.org/2000/svg">
<path d="M16.6667 20H10C9.116 20 8.26811 19.6488 7.64298 19.0237C7.01786 18.3986 6.66667 17.5507 6.66667 16.6667V13.3333H2.96333C2.17768 13.3324 1.42446 13.02 0.868911 12.4644C0.313378 11.9089 0.000877778 11.1557 0 10.37V2.96333C0.000877778 2.17768 0.313378 1.42446 0.868911 0.868911C1.42446 0.313378 2.17768 0.000877778 2.96333 0H10.37C11.1557 0.000877778 11.9089 0.313378 12.4644 0.868911C13.02 1.42446 13.3324 2.17768 13.3333 2.96333V6.66667H16.6667C17.5507 6.66667 18.3986 7.01786 19.0237 7.64298C19.6488 8.26811 20 9.116 20 10V16.6667C20 17.5507 19.6488 18.3986 19.0237 19.0237C18.3986 19.6488 17.5507 20 16.6667 20ZM2.96333 2.22222C2.76687 2.22251 2.57853 2.30069 2.43961 2.43961C2.30069 2.57853 2.22251 2.76687 2.22222 2.96333V10.37C2.22251 10.5664 2.30069 10.7548 2.43961 10.8937C2.57853 11.0327 2.76687 11.1108 2.96333 11.1111H6.66667V10C6.66667 9.116 7.01786 8.26811 7.64298 7.64298C8.26811 7.01786 9.116 6.66667 10 6.66667H11.1111V2.96333C11.1108 2.76687 11.0327 2.57853 10.8937 2.43961C10.7548 2.30069 10.5664 2.22251 10.37 2.22222H2.96333Z" fill="white"/>
</svg>
