<svg width="16" height="20" viewBox="0 0 16 20" fill="none" xmlns="http://www.w3.org/2000/svg">
<path d="M14.7927 3.69274L11.7836 0.669555C11.573 0.456641 11.322 0.287787 11.0455 0.172837C10.7689 0.0578868 10.4722 -0.000863144 10.1727 9.58224e-06H2.27273C1.67018 0.000732309 1.09253 0.240409 0.666463 0.666473C0.2404 1.09254 0.000722727 1.67019 0 2.27274V17.7273C0.000722727 18.3298 0.2404 18.9075 0.666463 19.3335C1.09253 19.7596 1.67018 19.9993 2.27273 20H13.1818C13.7844 19.9993 14.362 19.7596 14.7881 19.3335C15.2141 18.9075 15.4538 18.3298 15.4545 17.7273V5.29592C15.4552 4.99828 15.397 4.70347 15.2834 4.42837C15.1699 4.15324 15.0031 3.90324 14.7927 3.69274ZM13.9064 4.09092H11.8182C11.6976 4.09092 11.582 4.04301 11.4968 3.95778C11.4115 3.87256 11.3636 3.75692 11.3636 3.63637V1.53637L13.9064 4.09092ZM14.5454 17.7273C14.5454 18.0889 14.4018 18.4358 14.146 18.6915C13.8903 18.9472 13.5434 19.0909 13.1818 19.0909H2.27273C1.91109 19.0909 1.56423 18.9472 1.30849 18.6915C1.05276 18.4358 0.90909 18.0889 0.90909 17.7273V2.27274C0.90909 1.91108 1.05276 1.56423 1.30849 1.3085C1.56423 1.05277 1.91109 0.9091 2.27273 0.9091H10.1727C10.2674 0.909345 10.3619 0.91955 10.4545 0.939554V3.63637C10.4545 3.99801 10.5982 4.34487 10.8539 4.6006C11.1097 4.85633 11.4565 5.00001 11.8182 5.00001H14.5104C14.5329 5.09706 14.5446 5.19628 14.5454 5.29592V17.7273Z" fill="white"/>
<path d="M12.2726 7.27274H4.54537C4.42482 7.27274 4.30918 7.32064 4.22396 7.40587C4.13873 7.4911 4.09082 7.60674 4.09082 7.72728C4.09082 7.84783 4.13873 7.96346 4.22396 8.04869C4.30918 8.13392 4.42482 8.18183 4.54537 8.18183H12.2726C12.3932 8.18183 12.5088 8.13392 12.594 8.04869C12.6793 7.96346 12.7272 7.84783 12.7272 7.72728C12.7272 7.60674 12.6793 7.4911 12.594 7.40587C12.5088 7.32064 12.3932 7.27274 12.2726 7.27274Z" fill="white"/>
<path d="M12.2727 9.54547H3.18184C3.06129 9.54547 2.94566 9.59338 2.86043 9.67861C2.7752 9.76383 2.72729 9.87947 2.72729 10C2.72729 10.1206 2.7752 10.2362 2.86043 10.3214C2.94566 10.4067 3.06129 10.4546 3.18184 10.4546H12.2727C12.3933 10.4546 12.5089 10.4067 12.5942 10.3214C12.6794 10.2362 12.7273 10.1206 12.7273 10C12.7273 9.87947 12.6794 9.76383 12.5942 9.67861C12.5089 9.59338 12.3933 9.54547 12.2727 9.54547Z" fill="white"/>
<path d="M12.2727 11.8182H3.18184C3.06129 11.8182 2.94566 11.8661 2.86043 11.9513C2.7752 12.0365 2.72729 12.1522 2.72729 12.2727C2.72729 12.3933 2.7752 12.5089 2.86043 12.5941C2.94566 12.6794 3.06129 12.7273 3.18184 12.7273H12.2727C12.3933 12.7273 12.5089 12.6794 12.5942 12.5941C12.6794 12.5089 12.7273 12.3933 12.7273 12.2727C12.7273 12.1522 12.6794 12.0365 12.5942 11.9513C12.5089 11.8661 12.3933 11.8182 12.2727 11.8182Z" fill="white"/>
<path d="M12.2727 14.0909H3.18184C3.06129 14.0909 2.94566 14.1388 2.86043 14.224C2.7752 14.3093 2.72729 14.4249 2.72729 14.5455C2.72729 14.666 2.7752 14.7816 2.86043 14.8669C2.94566 14.9521 3.06129 15 3.18184 15H12.2727C12.3933 15 12.5089 14.9521 12.5942 14.8669C12.6794 14.7816 12.7273 14.666 12.7273 14.5455C12.7273 14.4249 12.6794 14.3093 12.5942 14.224C12.5089 14.1388 12.3933 14.0909 12.2727 14.0909Z" fill="white"/>
<path d="M10 16.3636H3.18184C3.06129 16.3636 2.94566 16.4116 2.86043 16.4968C2.7752 16.582 2.72729 16.6976 2.72729 16.8182C2.72729 16.9387 2.7752 17.0544 2.86043 17.1396C2.94566 17.2248 3.06129 17.2727 3.18184 17.2727H10C10.1206 17.2727 10.2362 17.2248 10.3214 17.1396C10.4067 17.0544 10.4546 16.9387 10.4546 16.8182C10.4546 16.6976 10.4067 16.582 10.3214 16.4968C10.2362 16.4116 10.1206 16.3636 10 16.3636Z" fill="white"/>
<path d="M3.13627 5.65773L3.389 5.15137H4.79809L5.05082 5.65773C5.0775 5.71114 5.11445 5.75877 5.15954 5.79796C5.20463 5.83709 5.257 5.86696 5.31363 5.88586C5.37027 5.90477 5.43009 5.91236 5.48968 5.90814C5.54922 5.90396 5.60741 5.88805 5.66082 5.86137C5.71422 5.83468 5.76191 5.79773 5.80104 5.75264C5.84018 5.70755 5.87004 5.65518 5.88895 5.59855C5.90786 5.54187 5.91545 5.48209 5.91122 5.4225C5.90704 5.36296 5.89113 5.30477 5.86445 5.25137L4.50082 2.52409C4.45882 2.45364 4.39922 2.39531 4.32795 2.3548C4.25663 2.31429 4.176 2.293 4.094 2.293C4.012 2.293 3.93136 2.31429 3.86004 2.3548C3.78877 2.39531 3.72918 2.45364 3.68718 2.52409L2.32354 5.25137C2.29686 5.30477 2.28095 5.36296 2.27677 5.4225C2.27254 5.48209 2.28014 5.54187 2.29904 5.59855C2.33723 5.71291 2.41927 5.80746 2.52718 5.86137C2.63509 5.91523 2.75995 5.92405 2.87436 5.88586C2.931 5.86696 2.98336 5.83709 3.02845 5.79796C3.07354 5.75877 3.1105 5.71114 3.13718 5.65773H3.13627ZM4.34263 4.24228H3.84263L4.09218 3.74228L4.34263 4.24228Z" fill="white"/>
<path d="M6.13643 4.3182H6.3637V4.54548C6.3637 4.66602 6.41161 4.78166 6.49684 4.86688C6.58207 4.95211 6.6977 5.00002 6.81825 5.00002C6.93879 5.00002 7.05443 4.95211 7.13966 4.86688C7.22488 4.78166 7.27279 4.66602 7.27279 4.54548V4.3182H7.50007C7.62061 4.3182 7.73625 4.27029 7.82147 4.18507C7.9067 4.09984 7.95461 3.9842 7.95461 3.86366C7.95461 3.74311 7.9067 3.62749 7.82147 3.54224C7.73625 3.457 7.62061 3.40911 7.50007 3.40911H7.27279V3.18184C7.27279 3.06129 7.22488 2.94567 7.13966 2.86043C7.05443 2.77519 6.93879 2.72729 6.81825 2.72729C6.6977 2.72729 6.58207 2.77519 6.49684 2.86043C6.41161 2.94567 6.3637 3.06129 6.3637 3.18184V3.40911H6.13643C6.01588 3.40911 5.90025 3.457 5.81502 3.54224C5.72979 3.62749 5.68188 3.74311 5.68188 3.86366C5.68188 3.9842 5.72979 4.09984 5.81502 4.18507C5.90025 4.27029 6.01588 4.3182 6.13643 4.3182Z" fill="white"/>
</svg>
