<svg width="23" height="20" viewBox="0 0 23 20" fill="none" xmlns="http://www.w3.org/2000/svg">
<path fill-rule="evenodd" clip-rule="evenodd" d="M5.57324 12.3426C5.46433 12.3426 5.37792 12.2561 5.37792 12.1475C5.37792 12.1204 5.38543 12.0957 5.39526 12.071C5.43002 11.9796 5.4545 11.8833 5.47421 11.7871C5.49154 11.6932 5.49904 11.5895 5.49904 11.4833C5.49904 11.0215 5.31149 10.6042 5.01001 10.3029C4.70883 10.0017 4.28923 9.81406 3.82978 9.81406C3.36563 9.81406 2.94841 9.99929 2.64956 10.3029C2.34327 10.6042 2.15814 11.0215 2.15814 11.4833C2.15814 11.592 2.16528 11.6932 2.18505 11.7871C2.20243 11.8857 2.22965 11.9845 2.26436 12.0784C2.30384 12.1797 2.25453 12.2932 2.15312 12.3302C2.13574 12.3376 2.1211 12.3401 2.10371 12.3426H2.10133H2.09864H2.09621H2.07645H0V17.4589C0 18.1578 0.286583 18.7924 0.747993 19.2541C1.20744 19.7134 1.8445 19.9999 2.5435 19.9999H7.65734V18.18L7.56344 18.1997C7.43994 18.222 7.31157 18.2343 7.18807 18.2343C6.6252 18.2343 6.11645 18.0071 5.74108 17.6417L5.7312 17.6294C5.35588 17.2565 5.12616 16.7404 5.12616 16.1725C5.12616 15.6021 5.35588 15.086 5.7312 14.7131C6.10419 14.3403 6.62013 14.1106 7.18812 14.1106C7.31162 14.1106 7.43999 14.1205 7.56349 14.1452L7.65739 14.1625V12.3426H5.5781H5.57324ZM22.3027 5.70028L19.7469 1.27027C19.3964 0.665387 18.8309 0.257889 18.2013 0.087512C17.574 -0.0803816 16.8826 -0.0112579 16.2802 0.334463L11.8401 2.89752L12.7539 4.47297L12.8229 4.40877C12.9168 4.32971 13.0206 4.25567 13.1316 4.19146C13.623 3.90747 14.1859 3.85076 14.6947 3.98652C15.2035 4.12229 15.6629 4.45321 15.9491 4.94701C16.2305 5.44096 16.2901 6.00145 16.1543 6.51005C16.0182 7.02123 15.685 7.47804 15.1936 7.76203C15.0799 7.82873 14.9663 7.88062 14.853 7.9201L14.7591 7.95223L15.6701 9.52758L20.4433 6.7718L20.5519 6.71007L20.5569 6.70764L22.3027 5.70028ZM20.9445 7.33741C20.8533 7.24847 20.7542 7.16952 20.6457 7.10531L18.1124 8.56704C18.1172 8.69313 18.1322 8.81896 18.1665 8.94241C18.2036 9.09799 18.2652 9.24855 18.3493 9.3943C18.5865 9.80671 18.9666 10.0857 19.3838 10.2018C19.8013 10.3202 20.2604 10.2783 20.6579 10.0487C21.0557 9.81908 21.3222 9.44366 21.4284 9.02395C21.5347 8.60419 21.4829 8.13988 21.2484 7.73001L21.2433 7.72261C21.1592 7.57686 21.0605 7.44849 20.9445 7.33741ZM8.04735 14.4268C8.04735 14.5354 7.96095 14.6219 7.85235 14.6219H7.84723H7.84247H7.84009H7.83734H7.83496H7.83258H7.8302H7.82508V14.6193H7.82032H7.81763H7.8152H7.81282L7.81049 14.6168H7.80775H7.80537L7.80061 14.6144H7.79792H7.79554H7.79316L7.79078 14.6119H7.78804L7.78328 14.6094H7.78053L7.77583 14.6069L7.7707 14.6045C7.68187 14.5724 7.58827 14.5452 7.49436 14.528C7.39565 14.5106 7.29662 14.5008 7.18807 14.5008C6.72868 14.5008 6.30902 14.6885 6.00785 14.9897C5.70388 15.2935 5.51876 15.7108 5.51876 16.1725C5.51876 16.6342 5.70388 17.0516 6.00785 17.3528L6.01768 17.3627C6.31647 17.6591 6.72863 17.8442 7.18807 17.8442C7.29662 17.8442 7.39565 17.8344 7.49436 17.8171C7.59303 17.7998 7.68699 17.7701 7.78053 17.7356C7.88432 17.6961 7.99805 17.7479 8.03509 17.8467C8.04259 17.8714 8.04735 17.8936 8.04735 17.9183V17.9233V17.9283V17.9381V20H13.1612C13.8602 20 14.4973 19.7135 14.9564 19.2542C15.4182 18.7925 15.7047 18.1579 15.7047 17.459V12.3427H13.8847L13.9044 12.439C13.927 12.5625 13.9392 12.6859 13.9392 12.8118C13.9392 13.3822 13.7071 13.8958 13.3365 14.2712C12.9615 14.644 12.4452 14.8737 11.8749 14.8737C11.3144 14.8737 10.8032 14.6491 10.4326 14.2811L10.418 14.2713C10.045 13.8959 9.81528 13.3823 9.81528 12.8119C9.81528 12.6884 9.82511 12.5626 9.85 12.4391L9.86971 12.3427H8.04735V14.4268ZM7.65734 4.29515H2.5435C1.8445 4.29515 1.20744 4.58163 0.747993 5.04335C0.286583 5.50264 0 6.13975 0 6.83859V11.9525H1.81998L1.80026 11.8587C1.77781 11.7352 1.76555 11.6093 1.76555 11.4833C1.76555 10.9154 1.99765 10.4018 2.36789 10.0264C2.74326 9.65356 3.26189 9.42146 3.82989 9.42146C4.39788 9.42146 4.91377 9.65356 5.28681 10.0264C5.65975 10.3993 5.88911 10.9154 5.88911 11.4833C5.88911 11.6093 5.87928 11.7352 5.85713 11.8587L5.83504 11.9525H7.65739V9.80914C7.65739 9.77701 7.66728 9.74494 7.68192 9.71529C7.73635 9.62149 7.85478 9.58693 7.94874 9.63877C8.06717 9.70536 8.19548 9.75725 8.33156 9.79424C8.45982 9.82637 8.59796 9.84614 8.74128 9.84614C9.2031 9.84614 9.62027 9.65351 9.9215 9.34235C10.2254 9.0313 10.4129 8.60166 10.4129 8.12504C10.4129 7.64841 10.2254 7.21634 9.9215 6.90513C9.62033 6.59651 9.20315 6.40388 8.74128 6.40388C8.59796 6.40388 8.45987 6.42121 8.33156 6.45577C8.2005 6.4879 8.077 6.5397 7.96095 6.60142C7.92892 6.62118 7.89182 6.63355 7.8524 6.63355C7.7438 6.63355 7.65734 6.54709 7.65734 6.43844V4.29515Z" fill="white"/>
</svg>
