<svg width="26" height="20" viewBox="0 0 26 20" fill="none" xmlns="http://www.w3.org/2000/svg">
<path d="M12.5659 4.03711L3.60288 11.4262C3.60288 11.4366 3.60026 11.452 3.59502 11.4729C3.58989 11.4936 3.58716 11.5087 3.58716 11.5194V19.0016C3.58716 19.2718 3.68593 19.5059 3.88341 19.7031C4.08084 19.9003 4.31463 19.9996 4.58484 19.9996H10.5705V14.0136H14.5615V19.9998H20.5471C20.8172 19.9998 21.0513 19.9008 21.2485 19.7031C21.446 19.5061 21.5451 19.2719 21.5451 19.0016V11.5194C21.5451 11.4779 21.5394 11.4466 21.5293 11.4262L12.5659 4.03711Z" fill="#FAC100"/>
<path d="M24.9582 9.74278L21.5446 6.90573V0.545712C21.5446 0.400317 21.4979 0.280746 21.4041 0.187164C21.311 0.0936912 21.1915 0.0469548 21.0458 0.0469548H18.0529C17.9073 0.0469548 17.7878 0.0936912 17.6942 0.187164C17.6007 0.280746 17.5541 0.400371 17.5541 0.545712V3.58538L13.7506 0.405285C13.4184 0.135077 13.0235 0 12.5662 0C12.1089 0 11.714 0.135077 11.3815 0.405285L0.173217 9.74278C0.069316 9.82577 0.0123697 9.93748 0.00177759 10.0778C-0.00875993 10.218 0.0275481 10.3405 0.110811 10.4443L1.07726 11.5979C1.16052 11.6914 1.2695 11.7485 1.40463 11.7694C1.52939 11.7799 1.65415 11.7434 1.77891 11.6603L12.5658 2.66567L23.3529 11.6603C23.4362 11.7328 23.5451 11.769 23.6802 11.769H23.7271C23.862 11.7485 23.9708 11.6909 24.0545 11.5977L25.021 10.4443C25.1041 10.3402 25.1405 10.218 25.1297 10.0776C25.1191 9.93765 25.0619 9.82594 24.9582 9.74278Z" fill="#FF9500"/>
</svg>
