<svg aria-hidden="true" style="position:absolute;width:0;height:0;overflow:hidden" xmlns="http://www.w3.org/2000/svg">
<defs>
<symbol id="apple" viewBox="0 0 18 18">
<path d="M2.7 13.2859C2.10326 13.2859 1.53097 13.5117 1.10901 13.9135C0.687051 14.3153 0.45 14.8604 0.45 15.4287C0.45 15.997 0.687051 16.542 1.10901 16.9439C1.53097 17.3457 2.10326 17.5715 2.7 17.5715H17.1C16.5222 16.1959 16.5222 14.6615 17.1 13.2859H2.7Z" fill="#EAEFF0"/>
<path d="M2.7 17.5715H17.1C16.8137 16.89 16.6666 16.1627 16.6667 15.4287H0.45C0.45 15.997 0.687051 16.542 1.10901 16.9439C1.53097 17.3457 2.10326 17.5715 2.7 17.5715Z" fill="#D9E1E2"/>
<path d="M8.99991 12.8621C9.39497 13.1127 9.85901 13.2464 10.3337 13.2464C10.8084 13.2464 11.2725 13.1127 11.6675 12.8621C12.5336 12.3122 13.1904 11.511 13.5404 10.5774L14.4571 8.13465C14.6865 7.52275 14.7289 6.86136 14.5792 6.22744C14.4295 5.59352 14.094 5.01308 13.6115 4.55362C13.1571 4.12078 12.5894 3.81153 11.9673 3.65798C11.3451 3.50438 10.6911 3.5121 10.0732 3.68022L8.99991 3.97035L7.92666 3.67851C7.30867 3.51038 6.65474 3.50267 6.03257 3.65627C5.41044 3.80982 4.84272 4.11906 4.38831 4.55191C3.90587 5.01136 3.5703 5.5918 3.42059 6.22572C3.27092 6.85965 3.31331 7.52104 3.54276 8.13293L4.45941 10.5757C4.80947 11.5093 5.46624 12.3105 6.33231 12.8604C6.72737 13.111 7.19141 13.2447 7.66611 13.2447C8.14077 13.2447 8.60486 13.111 8.99991 12.8604V12.8621Z" fill="#FAC100"/>
<path d="M12.15 12.0002C11.1014 12.0017 10.0669 11.77 9.12884 11.3238C8.19072 10.8777 7.37487 10.2292 6.74613 9.43005C6.11734 8.63088 5.69304 7.70301 5.50697 6.72024C5.32085 5.73747 5.37804 4.72693 5.67401 3.76893C4.78656 4.08204 4.06481 4.71617 3.66575 5.53339C3.26664 6.35061 3.22241 7.28486 3.54276 8.13293L4.45941 10.5757C4.80947 11.5093 5.46624 12.3105 6.33231 12.8604C6.72737 13.111 7.19141 13.2447 7.66611 13.2447C8.14077 13.2447 8.60486 13.111 8.99991 12.8604C9.39497 13.111 9.8591 13.2447 10.3338 13.2447C10.8085 13.2447 11.2725 13.111 11.6676 12.8604C12.0547 12.6132 12.4023 12.3139 12.6994 11.972C12.5176 11.9878 12.3354 12.0002 12.15 12.0002Z" fill="#FF9500"/>
<path d="M9 3.12353V2.54797C9.00036 2.19299 9.11786 1.84708 9.33588 1.55916C9.55391 1.27124 9.86144 1.05585 10.215 0.943454L11.8292 0.429185L11.2892 1.96556C11.171 2.30263 10.9445 2.59576 10.6417 2.80343C10.3389 3.0111 9.97524 3.12278 9.6021 3.12267L9 3.12353Z" fill="#F87600"/>
<path d="M17.55 17.1429H17.4199C17.0212 16.0316 17.0212 14.8257 17.4199 13.7144H17.55C17.6693 13.7144 17.7838 13.6693 17.8682 13.5889C17.9526 13.5085 18 13.3995 18 13.2859C18 13.1722 17.9526 13.0632 17.8682 12.9828C17.7838 12.9025 17.6693 12.8573 17.55 12.8573H12.411C13.1146 12.286 13.6498 11.55 13.964 10.7218L14.8806 8.27903C15.1026 7.68753 15.1695 7.05335 15.0756 6.4316C14.9817 5.8099 14.7298 5.21939 14.3417 4.71146C13.9536 4.20358 13.4411 3.79362 12.8489 3.51724C12.2566 3.24086 11.6024 3.10642 10.9431 3.12563C11.3054 2.86718 11.576 2.50951 11.7189 2.10052L12.2562 0.564137C12.2827 0.488626 12.2865 0.407594 12.2673 0.330124C12.2481 0.252653 12.2066 0.181804 12.1475 0.125522C12.0884 0.0692349 12.014 0.0297391 11.9327 0.0114568C11.8513 -0.00682548 11.7662 -0.00316985 11.687 0.0220122L10.0737 0.536281C9.7902 0.626227 9.52866 0.769764 9.30483 0.958282C9.08096 1.1468 8.89938 1.37643 8.77095 1.63339C8.56836 1.18489 8.32392 0.75461 8.0406 0.347716C8.00797 0.300776 7.96599 0.260419 7.91699 0.228945C7.86798 0.197468 7.81295 0.175491 7.75503 0.164272C7.69712 0.153048 7.63745 0.152799 7.57944 0.163539C7.52139 0.174279 7.46618 0.195797 7.4169 0.226863C7.36763 0.257929 7.32524 0.297935 7.29221 0.344596C7.25913 0.391262 7.23604 0.443666 7.22425 0.498821C7.21251 0.553976 7.21224 0.610803 7.22349 0.666057C7.23479 0.721311 7.25738 0.773903 7.29 0.820843C7.83009 1.59277 8.20971 2.4562 8.40825 3.36433L8.04825 3.26662C7.33185 3.07212 6.57302 3.06939 5.85513 3.25873C5.1372 3.44807 4.48794 3.82216 3.97863 4.3399C3.46937 4.85764 3.11971 5.49902 2.96815 6.19363C2.81655 6.88823 2.86889 7.60919 3.1194 8.27732L4.03605 10.7201C4.34997 11.5489 4.8852 12.2855 5.589 12.8573H2.7C1.98392 12.8573 1.29716 13.1282 0.790812 13.6105C0.284463 14.0927 0 14.7467 0 15.4287C0 16.1106 0.284463 16.7646 0.790812 17.2469C1.29716 17.7291 1.98392 18 2.7 18H17.55C17.6693 18 17.7838 17.9548 17.8682 17.8745C17.9526 17.7941 18 17.6851 18 17.5714C18 17.4578 17.9526 17.3488 17.8682 17.2684C17.7838 17.1881 17.6693 17.1429 17.55 17.1429ZM9.45 2.54793C9.44987 2.28237 9.53757 2.02352 9.70065 1.80812C9.86373 1.59272 10.094 1.43171 10.3586 1.34797L11.1177 1.10669L10.8652 1.8301C10.7771 2.082 10.608 2.30111 10.3819 2.4564C10.1557 2.6117 9.88402 2.69529 9.60525 2.69535H9.45V2.54793ZM4.8834 10.4334L3.9663 7.99061C3.77104 7.47051 3.73014 6.90919 3.84809 6.36839C3.96603 5.82759 4.23823 5.3282 4.63482 4.92514C5.0314 4.52208 5.53698 4.23096 6.09597 4.08375C6.65501 3.93654 7.24581 3.93898 7.80345 4.09074L8.8767 4.38301C8.9573 4.40487 9.04271 4.40487 9.1233 4.38301L10.1966 4.09074C10.7542 3.93898 11.345 3.93654 11.904 4.08375C12.463 4.23096 12.9686 4.52208 13.3652 4.92514C13.7618 5.3282 14.034 5.82759 14.1519 6.36839C14.2699 6.90919 14.229 7.47051 14.0337 7.99061L13.1166 10.4334C12.7972 11.2791 12.2019 12.0052 11.4178 12.5055C11.097 12.7098 10.7198 12.8188 10.3338 12.8188C9.94783 12.8188 9.5706 12.7098 9.24975 12.5055C9.17582 12.4585 9.08887 12.4334 9 12.4334C8.91113 12.4334 8.82418 12.4585 8.75025 12.5055C8.4294 12.7098 8.05217 12.8188 7.6662 12.8188C7.28023 12.8188 6.903 12.7098 6.58215 12.5055C5.79812 12.0052 5.20281 11.2791 4.8834 10.4334ZM0.9 15.4287C0.9 14.974 1.08964 14.538 1.42721 14.2165C1.76477 13.895 2.22261 13.7144 2.7 13.7144H16.47C16.1289 14.8342 16.1289 16.0231 16.47 17.1429H2.7C2.22261 17.1429 1.76477 16.9623 1.42721 16.6408C1.08964 16.3193 0.9 15.8833 0.9 15.4287Z" fill="#6F6F6F"/>
<path d="M11.25 14.5716H3.15C3.03066 14.5716 2.91618 14.6168 2.8318 14.6971C2.74743 14.7775 2.7 14.8865 2.7 15.0001C2.7 15.1138 2.74743 15.2228 2.8318 15.3032C2.91618 15.3835 3.03066 15.4287 3.15 15.4287H11.25C11.3693 15.4287 11.4838 15.3835 11.5682 15.3032C11.6526 15.2228 11.7 15.1138 11.7 15.0001C11.7 14.8865 11.6526 14.7775 11.5682 14.6971C11.4838 14.6168 11.3693 14.5716 11.25 14.5716Z" fill="#6F6F6F"/>
<path d="M14.85 15.4287H13.05C12.9307 15.4287 12.8162 15.4739 12.7318 15.5542C12.6474 15.6346 12.6 15.7436 12.6 15.8573C12.6 15.9709 12.6474 16.0799 12.7318 16.1603C12.8162 16.2406 12.9307 16.2858 13.05 16.2858H14.85C14.9693 16.2858 15.0838 16.2406 15.1682 16.1603C15.2526 16.0799 15.3 15.9709 15.3 15.8573C15.3 15.7436 15.2526 15.6346 15.1682 15.5542C15.0838 15.4739 14.9693 15.4287 14.85 15.4287Z" fill="#6F6F6F"/>
<path d="M6.54831 10.3287C6.62504 10.3287 6.70046 10.3099 6.76737 10.2743C6.83433 10.2387 6.89063 10.1873 6.9309 10.1252C6.97113 10.063 6.99404 9.99202 6.99741 9.91908C7.00083 9.84609 6.98454 9.77349 6.95016 9.70818L6.33816 8.54293C6.29073 8.45212 6.24983 8.35836 6.21576 8.26223L6.12981 8.01538C5.96534 7.54144 5.96534 7.0297 6.12981 6.55571L6.27696 6.1353C6.29563 6.08186 6.30311 6.02542 6.29888 5.96919C6.29465 5.91301 6.2788 5.85815 6.2523 5.80775C6.22584 5.7574 6.18917 5.71248 6.14444 5.67559C6.09975 5.63869 6.04782 5.61053 5.99166 5.59275C5.93555 5.57496 5.87628 5.56789 5.81724 5.57192C5.75825 5.57595 5.70065 5.59103 5.64773 5.61623C5.59485 5.64147 5.54769 5.6764 5.50895 5.71896C5.4702 5.76155 5.44064 5.81101 5.42196 5.86445L5.27436 6.28487C5.04873 6.93469 5.04873 7.63645 5.27436 8.28623L5.36076 8.53393C5.40765 8.66854 5.46462 8.79973 5.53131 8.92649L6.14331 10.0917C6.18089 10.1633 6.23871 10.2234 6.31031 10.2654C6.38186 10.3072 6.46434 10.3292 6.54831 10.3287Z" fill="#6F6F6F"/>
</symbol>
<symbol id="cup" viewBox="0 0 18 18">
<path d="M6.0752 16.2H11.9252V15.3C11.5672 15.3 11.2238 15.1578 10.9706 14.9046C10.7174 14.6514 10.5752 14.308 10.5752 13.95V12.438H7.4252V13.95C7.4252 14.308 7.28296 14.6514 7.02979 14.9046C6.77662 15.1578 6.43324 15.3 6.0752 15.3V16.2Z" fill="#F87600"/>
<path d="M13.5002 15.3H4.5002C4.02281 15.3 3.56497 15.4896 3.2274 15.8272C2.88984 16.1648 2.7002 16.6226 2.7002 17.1C2.7002 17.3387 2.79502 17.5676 2.9638 17.7364C3.13258 17.9052 3.3615 18 3.6002 18H14.4002C14.6389 18 14.8678 17.9052 15.0366 17.7364C15.2054 17.5676 15.3002 17.3387 15.3002 17.1C15.3002 16.6226 15.1106 16.1648 14.773 15.8272C14.4354 15.4896 13.9776 15.3 13.5002 15.3Z" fill="#FAC100"/>
<path d="M4.5002 17.1C4.5002 16.6226 4.68984 16.1648 5.0274 15.8272C5.36497 15.4896 5.82281 15.3 6.3002 15.3H4.5002C4.02281 15.3 3.56497 15.4896 3.2274 15.8272C2.88984 16.1648 2.7002 16.6226 2.7002 17.1C2.7002 17.3387 2.79502 17.5676 2.9638 17.7364C3.13258 17.9052 3.3615 18 3.6002 18H5.4002C5.1615 18 4.93258 17.9052 4.7638 17.7364C4.59502 17.5676 4.5002 17.3387 4.5002 17.1Z" fill="#FF9500"/>
<path d="M14.625 10.35H13.95C13.8307 10.35 13.7162 10.3026 13.6318 10.2182C13.5474 10.1338 13.5 10.0193 13.5 9.89998C13.5 9.78063 13.5474 9.66617 13.6318 9.58178C13.7162 9.49739 13.8307 9.44998 13.95 9.44998H14.625C15.2812 9.44926 15.9103 9.18827 16.3743 8.72428C16.8383 8.26028 17.0993 7.63117 17.1 6.97498V4.94998C17.1 4.83063 17.0526 4.71617 16.9682 4.63178C16.8838 4.54739 16.7693 4.49998 16.65 4.49998H14.4C14.2807 4.49998 14.1662 4.45256 14.0818 4.36817C13.9974 4.28378 13.95 4.16932 13.95 4.04998C13.95 3.93063 13.9974 3.81617 14.0818 3.73178C14.1662 3.64739 14.2807 3.59998 14.4 3.59998H16.65C17.008 3.59998 17.3514 3.74221 17.6046 3.99538C17.8578 4.24856 18 4.59193 18 4.94998V6.97498C17.999 7.86979 17.6432 8.72768 17.0104 9.36041C16.3777 9.99314 15.5198 10.349 14.625 10.35Z" fill="#FF9500"/>
<path d="M4.05 10.35H3.375C2.48019 10.349 1.6223 9.99314 0.989567 9.36041C0.356838 8.72768 0.000952943 7.86979 0 6.97498V4.94998C0 4.59193 0.142232 4.24856 0.395406 3.99538C0.64858 3.74221 0.991958 3.59998 1.35 3.59998H3.6C3.71935 3.59998 3.83381 3.64739 3.9182 3.73178C4.00259 3.81617 4.05 3.93063 4.05 4.04998C4.05 4.16932 4.00259 4.28378 3.9182 4.36817C3.83381 4.45256 3.71935 4.49998 3.6 4.49998H1.35C1.23065 4.49998 1.11619 4.54739 1.0318 4.63178C0.947411 4.71617 0.9 4.83063 0.9 4.94998V6.97498C0.900715 7.63117 1.1617 8.26028 1.6257 8.72428C2.0897 9.18827 2.71881 9.44926 3.375 9.44998H4.05C4.16935 9.44998 4.28381 9.49739 4.3682 9.58178C4.45259 9.66617 4.5 9.78063 4.5 9.89998C4.5 10.0193 4.45259 10.1338 4.3682 10.2182C4.28381 10.3026 4.16935 10.35 4.05 10.35Z" fill="#FF9500"/>
<path d="M13.9501 0H4.05012C3.69208 0 3.3487 0.142232 3.09553 0.395406C2.84235 0.64858 2.70012 0.991958 2.70012 1.35V7.09155C2.68777 8.77619 3.3441 10.397 4.52514 11.5983C5.70619 12.7997 7.31552 13.4836 9.00012 13.5C10.6847 13.4836 12.2941 12.7997 13.4751 11.5983C14.6561 10.397 15.3125 8.77619 15.3001 7.09155V1.35C15.3001 0.991958 15.1579 0.64858 14.9047 0.395406C14.6515 0.142232 14.3082 0 13.9501 0Z" fill="#FAC100"/>
<path d="M10.8001 12.15C9.11552 12.1336 7.50619 11.4497 6.32514 10.2483C5.1441 9.04696 4.48777 7.42619 4.50012 5.74155V0H4.05012C3.69208 0 3.3487 0.142232 3.09553 0.395406C2.84235 0.64858 2.70012 0.991958 2.70012 1.35V7.09155C2.68777 8.77619 3.3441 10.397 4.52514 11.5983C5.70619 12.7997 7.31552 13.4836 9.00012 13.5C9.85977 13.4983 10.7098 13.3187 11.4965 12.9723C12.2833 12.626 12.9899 12.1205 13.5717 11.4876C12.7122 11.9218 11.763 12.1487 10.8001 12.15Z" fill="#FF9500"/>
<path d="M11.681 5.2119C11.6616 5.15241 11.6281 5.09852 11.5832 5.05486C11.5384 5.0112 11.4836 4.97908 11.4236 4.96125L10.0988 4.5711L9.3181 3.4317C9.28071 3.38281 9.23256 3.3432 9.17739 3.31593C9.12221 3.28866 9.06149 3.27448 8.99995 3.27448C8.9384 3.27448 8.87768 3.28866 8.82251 3.31593C8.76733 3.3432 8.71918 3.38281 8.6818 3.4317L7.90105 4.5711L6.57625 4.96125C6.51619 4.97904 6.46136 5.01118 6.41649 5.05489C6.37162 5.0986 6.33806 5.15257 6.3187 5.21215C6.29934 5.27172 6.29477 5.33511 6.30538 5.39685C6.31599 5.45858 6.34146 5.51681 6.3796 5.5665L7.222 6.66L7.1842 8.0406C7.18247 8.10324 7.19603 8.16536 7.22371 8.22157C7.25139 8.27779 7.29235 8.32642 7.34305 8.36324C7.39375 8.40007 7.45266 8.42399 7.51468 8.43293C7.5767 8.44187 7.63996 8.43556 7.699 8.41455L8.99995 7.95285L10.3009 8.415C10.3424 8.42959 10.3861 8.43705 10.43 8.43705C10.4816 8.43713 10.5326 8.42687 10.5801 8.40687C10.6276 8.38686 10.6706 8.35753 10.7066 8.3206C10.7426 8.28367 10.7708 8.23991 10.7895 8.19189C10.8082 8.14387 10.8171 8.09258 10.8157 8.04105L10.7779 6.66L11.6203 5.5656C11.6582 5.51593 11.6836 5.45782 11.6941 5.39622C11.7047 5.33463 11.7002 5.27138 11.681 5.2119Z" fill="#FF9500"/>
</symbol>
<symbol id="game-first" viewBox="0 0 16 20">
<path d="M14.7927 3.69274L11.7836 0.669555C11.573 0.456641 11.322 0.287787 11.0455 0.172837C10.7689 0.0578868 10.4722 -0.000863144 10.1727 9.58224e-06H2.27273C1.67018 0.000732309 1.09253 0.240409 0.666463 0.666473C0.2404 1.09254 0.000722727 1.67019 0 2.27274V17.7273C0.000722727 18.3298 0.2404 18.9075 0.666463 19.3335C1.09253 19.7596 1.67018 19.9993 2.27273 20H13.1818C13.7844 19.9993 14.362 19.7596 14.7881 19.3335C15.2141 18.9075 15.4538 18.3298 15.4545 17.7273V5.29592C15.4552 4.99828 15.397 4.70347 15.2834 4.42837C15.1699 4.15324 15.0031 3.90324 14.7927 3.69274ZM13.9064 4.09092H11.8182C11.6976 4.09092 11.582 4.04301 11.4968 3.95778C11.4115 3.87256 11.3636 3.75692 11.3636 3.63637V1.53637L13.9064 4.09092ZM14.5454 17.7273C14.5454 18.0889 14.4018 18.4358 14.146 18.6915C13.8903 18.9472 13.5434 19.0909 13.1818 19.0909H2.27273C1.91109 19.0909 1.56423 18.9472 1.30849 18.6915C1.05276 18.4358 0.90909 18.0889 0.90909 17.7273V2.27274C0.90909 1.91108 1.05276 1.56423 1.30849 1.3085C1.56423 1.05277 1.91109 0.9091 2.27273 0.9091H10.1727C10.2674 0.909345 10.3619 0.91955 10.4545 0.939554V3.63637C10.4545 3.99801 10.5982 4.34487 10.8539 4.6006C11.1097 4.85633 11.4565 5.00001 11.8182 5.00001H14.5104C14.5329 5.09706 14.5446 5.19628 14.5454 5.29592V17.7273Z" fill="white"/>
<path d="M12.2726 7.27274H4.54537C4.42482 7.27274 4.30918 7.32064 4.22396 7.40587C4.13873 7.4911 4.09082 7.60674 4.09082 7.72728C4.09082 7.84783 4.13873 7.96346 4.22396 8.04869C4.30918 8.13392 4.42482 8.18183 4.54537 8.18183H12.2726C12.3932 8.18183 12.5088 8.13392 12.594 8.04869C12.6793 7.96346 12.7272 7.84783 12.7272 7.72728C12.7272 7.60674 12.6793 7.4911 12.594 7.40587C12.5088 7.32064 12.3932 7.27274 12.2726 7.27274Z" fill="white"/>
<path d="M12.2727 9.54547H3.18184C3.06129 9.54547 2.94566 9.59338 2.86043 9.67861C2.7752 9.76383 2.72729 9.87947 2.72729 10C2.72729 10.1206 2.7752 10.2362 2.86043 10.3214C2.94566 10.4067 3.06129 10.4546 3.18184 10.4546H12.2727C12.3933 10.4546 12.5089 10.4067 12.5942 10.3214C12.6794 10.2362 12.7273 10.1206 12.7273 10C12.7273 9.87947 12.6794 9.76383 12.5942 9.67861C12.5089 9.59338 12.3933 9.54547 12.2727 9.54547Z" fill="white"/>
<path d="M12.2727 11.8182H3.18184C3.06129 11.8182 2.94566 11.8661 2.86043 11.9513C2.7752 12.0365 2.72729 12.1522 2.72729 12.2727C2.72729 12.3933 2.7752 12.5089 2.86043 12.5941C2.94566 12.6794 3.06129 12.7273 3.18184 12.7273H12.2727C12.3933 12.7273 12.5089 12.6794 12.5942 12.5941C12.6794 12.5089 12.7273 12.3933 12.7273 12.2727C12.7273 12.1522 12.6794 12.0365 12.5942 11.9513C12.5089 11.8661 12.3933 11.8182 12.2727 11.8182Z" fill="white"/>
<path d="M12.2727 14.0909H3.18184C3.06129 14.0909 2.94566 14.1388 2.86043 14.224C2.7752 14.3093 2.72729 14.4249 2.72729 14.5455C2.72729 14.666 2.7752 14.7816 2.86043 14.8669C2.94566 14.9521 3.06129 15 3.18184 15H12.2727C12.3933 15 12.5089 14.9521 12.5942 14.8669C12.6794 14.7816 12.7273 14.666 12.7273 14.5455C12.7273 14.4249 12.6794 14.3093 12.5942 14.224C12.5089 14.1388 12.3933 14.0909 12.2727 14.0909Z" fill="white"/>
<path d="M10 16.3636H3.18184C3.06129 16.3636 2.94566 16.4116 2.86043 16.4968C2.7752 16.582 2.72729 16.6976 2.72729 16.8182C2.72729 16.9387 2.7752 17.0544 2.86043 17.1396C2.94566 17.2248 3.06129 17.2727 3.18184 17.2727H10C10.1206 17.2727 10.2362 17.2248 10.3214 17.1396C10.4067 17.0544 10.4546 16.9387 10.4546 16.8182C10.4546 16.6976 10.4067 16.582 10.3214 16.4968C10.2362 16.4116 10.1206 16.3636 10 16.3636Z" fill="white"/>
<path d="M3.13627 5.65773L3.389 5.15137H4.79809L5.05082 5.65773C5.0775 5.71114 5.11445 5.75877 5.15954 5.79796C5.20463 5.83709 5.257 5.86696 5.31363 5.88586C5.37027 5.90477 5.43009 5.91236 5.48968 5.90814C5.54922 5.90396 5.60741 5.88805 5.66082 5.86137C5.71422 5.83468 5.76191 5.79773 5.80104 5.75264C5.84018 5.70755 5.87004 5.65518 5.88895 5.59855C5.90786 5.54187 5.91545 5.48209 5.91122 5.4225C5.90704 5.36296 5.89113 5.30477 5.86445 5.25137L4.50082 2.52409C4.45882 2.45364 4.39922 2.39531 4.32795 2.3548C4.25663 2.31429 4.176 2.293 4.094 2.293C4.012 2.293 3.93136 2.31429 3.86004 2.3548C3.78877 2.39531 3.72918 2.45364 3.68718 2.52409L2.32354 5.25137C2.29686 5.30477 2.28095 5.36296 2.27677 5.4225C2.27254 5.48209 2.28014 5.54187 2.29904 5.59855C2.33723 5.71291 2.41927 5.80746 2.52718 5.86137C2.63509 5.91523 2.75995 5.92405 2.87436 5.88586C2.931 5.86696 2.98336 5.83709 3.02845 5.79796C3.07354 5.75877 3.1105 5.71114 3.13718 5.65773H3.13627ZM4.34263 4.24228H3.84263L4.09218 3.74228L4.34263 4.24228Z" fill="white"/>
<path d="M6.13643 4.3182H6.3637V4.54548C6.3637 4.66602 6.41161 4.78166 6.49684 4.86688C6.58207 4.95211 6.6977 5.00002 6.81825 5.00002C6.93879 5.00002 7.05443 4.95211 7.13966 4.86688C7.22488 4.78166 7.27279 4.66602 7.27279 4.54548V4.3182H7.50007C7.62061 4.3182 7.73625 4.27029 7.82147 4.18507C7.9067 4.09984 7.95461 3.9842 7.95461 3.86366C7.95461 3.74311 7.9067 3.62749 7.82147 3.54224C7.73625 3.457 7.62061 3.40911 7.50007 3.40911H7.27279V3.18184C7.27279 3.06129 7.22488 2.94567 7.13966 2.86043C7.05443 2.77519 6.93879 2.72729 6.81825 2.72729C6.6977 2.72729 6.58207 2.77519 6.49684 2.86043C6.41161 2.94567 6.3637 3.06129 6.3637 3.18184V3.40911H6.13643C6.01588 3.40911 5.90025 3.457 5.81502 3.54224C5.72979 3.62749 5.68188 3.74311 5.68188 3.86366C5.68188 3.9842 5.72979 4.09984 5.81502 4.18507C5.90025 4.27029 6.01588 4.3182 6.13643 4.3182Z" fill="white"/>

</symbol>
<symbol id="game-second" viewBox="0 0 20 20">
<path d="M16.6667 20H10C9.116 20 8.26811 19.6488 7.64298 19.0237C7.01786 18.3986 6.66667 17.5507 6.66667 16.6667V13.3333H2.96333C2.17768 13.3324 1.42446 13.02 0.868911 12.4644C0.313378 11.9089 0.000877778 11.1557 0 10.37V2.96333C0.000877778 2.17768 0.313378 1.42446 0.868911 0.868911C1.42446 0.313378 2.17768 0.000877778 2.96333 0H10.37C11.1557 0.000877778 11.9089 0.313378 12.4644 0.868911C13.02 1.42446 13.3324 2.17768 13.3333 2.96333V6.66667H16.6667C17.5507 6.66667 18.3986 7.01786 19.0237 7.64298C19.6488 8.26811 20 9.116 20 10V16.6667C20 17.5507 19.6488 18.3986 19.0237 19.0237C18.3986 19.6488 17.5507 20 16.6667 20ZM2.96333 2.22222C2.76687 2.22251 2.57853 2.30069 2.43961 2.43961C2.30069 2.57853 2.22251 2.76687 2.22222 2.96333V10.37C2.22251 10.5664 2.30069 10.7548 2.43961 10.8937C2.57853 11.0327 2.76687 11.1108 2.96333 11.1111H6.66667V10C6.66667 9.116 7.01786 8.26811 7.64298 7.64298C8.26811 7.01786 9.116 6.66667 10 6.66667H11.1111V2.96333C11.1108 2.76687 11.0327 2.57853 10.8937 2.43961C10.7548 2.30069 10.5664 2.22251 10.37 2.22222H2.96333Z" fill="white"/>
</symbol>
<symbol id="game-third" viewBox="0 0 23 20">
<path fill-rule="evenodd" clip-rule="evenodd" d="M5.57324 12.3426C5.46433 12.3426 5.37792 12.2561 5.37792 12.1475C5.37792 12.1204 5.38543 12.0957 5.39526 12.071C5.43002 11.9796 5.4545 11.8833 5.47421 11.7871C5.49154 11.6932 5.49904 11.5895 5.49904 11.4833C5.49904 11.0215 5.31149 10.6042 5.01001 10.3029C4.70883 10.0017 4.28923 9.81406 3.82978 9.81406C3.36563 9.81406 2.94841 9.99929 2.64956 10.3029C2.34327 10.6042 2.15814 11.0215 2.15814 11.4833C2.15814 11.592 2.16528 11.6932 2.18505 11.7871C2.20243 11.8857 2.22965 11.9845 2.26436 12.0784C2.30384 12.1797 2.25453 12.2932 2.15312 12.3302C2.13574 12.3376 2.1211 12.3401 2.10371 12.3426H2.10133H2.09864H2.09621H2.07645H0V17.4589C0 18.1578 0.286583 18.7924 0.747993 19.2541C1.20744 19.7134 1.8445 19.9999 2.5435 19.9999H7.65734V18.18L7.56344 18.1997C7.43994 18.222 7.31157 18.2343 7.18807 18.2343C6.6252 18.2343 6.11645 18.0071 5.74108 17.6417L5.7312 17.6294C5.35588 17.2565 5.12616 16.7404 5.12616 16.1725C5.12616 15.6021 5.35588 15.086 5.7312 14.7131C6.10419 14.3403 6.62013 14.1106 7.18812 14.1106C7.31162 14.1106 7.43999 14.1205 7.56349 14.1452L7.65739 14.1625V12.3426H5.5781H5.57324ZM22.3027 5.70028L19.7469 1.27027C19.3964 0.665387 18.8309 0.257889 18.2013 0.087512C17.574 -0.0803816 16.8826 -0.0112579 16.2802 0.334463L11.8401 2.89752L12.7539 4.47297L12.8229 4.40877C12.9168 4.32971 13.0206 4.25567 13.1316 4.19146C13.623 3.90747 14.1859 3.85076 14.6947 3.98652C15.2035 4.12229 15.6629 4.45321 15.9491 4.94701C16.2305 5.44096 16.2901 6.00145 16.1543 6.51005C16.0182 7.02123 15.685 7.47804 15.1936 7.76203C15.0799 7.82873 14.9663 7.88062 14.853 7.9201L14.7591 7.95223L15.6701 9.52758L20.4433 6.7718L20.5519 6.71007L20.5569 6.70764L22.3027 5.70028ZM20.9445 7.33741C20.8533 7.24847 20.7542 7.16952 20.6457 7.10531L18.1124 8.56704C18.1172 8.69313 18.1322 8.81896 18.1665 8.94241C18.2036 9.09799 18.2652 9.24855 18.3493 9.3943C18.5865 9.80671 18.9666 10.0857 19.3838 10.2018C19.8013 10.3202 20.2604 10.2783 20.6579 10.0487C21.0557 9.81908 21.3222 9.44366 21.4284 9.02395C21.5347 8.60419 21.4829 8.13988 21.2484 7.73001L21.2433 7.72261C21.1592 7.57686 21.0605 7.44849 20.9445 7.33741ZM8.04735 14.4268C8.04735 14.5354 7.96095 14.6219 7.85235 14.6219H7.84723H7.84247H7.84009H7.83734H7.83496H7.83258H7.8302H7.82508V14.6193H7.82032H7.81763H7.8152H7.81282L7.81049 14.6168H7.80775H7.80537L7.80061 14.6144H7.79792H7.79554H7.79316L7.79078 14.6119H7.78804L7.78328 14.6094H7.78053L7.77583 14.6069L7.7707 14.6045C7.68187 14.5724 7.58827 14.5452 7.49436 14.528C7.39565 14.5106 7.29662 14.5008 7.18807 14.5008C6.72868 14.5008 6.30902 14.6885 6.00785 14.9897C5.70388 15.2935 5.51876 15.7108 5.51876 16.1725C5.51876 16.6342 5.70388 17.0516 6.00785 17.3528L6.01768 17.3627C6.31647 17.6591 6.72863 17.8442 7.18807 17.8442C7.29662 17.8442 7.39565 17.8344 7.49436 17.8171C7.59303 17.7998 7.68699 17.7701 7.78053 17.7356C7.88432 17.6961 7.99805 17.7479 8.03509 17.8467C8.04259 17.8714 8.04735 17.8936 8.04735 17.9183V17.9233V17.9283V17.9381V20H13.1612C13.8602 20 14.4973 19.7135 14.9564 19.2542C15.4182 18.7925 15.7047 18.1579 15.7047 17.459V12.3427H13.8847L13.9044 12.439C13.927 12.5625 13.9392 12.6859 13.9392 12.8118C13.9392 13.3822 13.7071 13.8958 13.3365 14.2712C12.9615 14.644 12.4452 14.8737 11.8749 14.8737C11.3144 14.8737 10.8032 14.6491 10.4326 14.2811L10.418 14.2713C10.045 13.8959 9.81528 13.3823 9.81528 12.8119C9.81528 12.6884 9.82511 12.5626 9.85 12.4391L9.86971 12.3427H8.04735V14.4268ZM7.65734 4.29515H2.5435C1.8445 4.29515 1.20744 4.58163 0.747993 5.04335C0.286583 5.50264 0 6.13975 0 6.83859V11.9525H1.81998L1.80026 11.8587C1.77781 11.7352 1.76555 11.6093 1.76555 11.4833C1.76555 10.9154 1.99765 10.4018 2.36789 10.0264C2.74326 9.65356 3.26189 9.42146 3.82989 9.42146C4.39788 9.42146 4.91377 9.65356 5.28681 10.0264C5.65975 10.3993 5.88911 10.9154 5.88911 11.4833C5.88911 11.6093 5.87928 11.7352 5.85713 11.8587L5.83504 11.9525H7.65739V9.80914C7.65739 9.77701 7.66728 9.74494 7.68192 9.71529C7.73635 9.62149 7.85478 9.58693 7.94874 9.63877C8.06717 9.70536 8.19548 9.75725 8.33156 9.79424C8.45982 9.82637 8.59796 9.84614 8.74128 9.84614C9.2031 9.84614 9.62027 9.65351 9.9215 9.34235C10.2254 9.0313 10.4129 8.60166 10.4129 8.12504C10.4129 7.64841 10.2254 7.21634 9.9215 6.90513C9.62033 6.59651 9.20315 6.40388 8.74128 6.40388C8.59796 6.40388 8.45987 6.42121 8.33156 6.45577C8.2005 6.4879 8.077 6.5397 7.96095 6.60142C7.92892 6.62118 7.89182 6.63355 7.8524 6.63355C7.7438 6.63355 7.65734 6.54709 7.65734 6.43844V4.29515Z" fill="white"/>
</symbol>
<symbol id="github" viewBox="0 0 24 28">
<path d="M8.109 18.75v0c0.031-0.047 0.016-0.141-0.047-0.203-0.078-0.063-0.172-0.078-0.219-0.031-0.031 0.047-0.016 0.141 0.047 0.203 0.078 0.063 0.172 0.078 0.219 0.031zM7.672 18.109c-0.047-0.063-0.125-0.094-0.187-0.063-0.047 0.031-0.047 0.125 0 0.187 0.063 0.078 0.141 0.109 0.187 0.078v0c0.047-0.031 0.047-0.125 0-0.203zM7.031 17.484v0c0.016-0.031-0.016-0.094-0.078-0.125-0.047-0.016-0.109-0.016-0.125 0.031-0.031 0.047 0 0.094 0.063 0.125 0.063 0.016 0.125 0.016 0.141-0.031zM7.359 17.844v0c0.031-0.031 0.031-0.109-0.031-0.156-0.047-0.063-0.125-0.078-0.156-0.047-0.047 0.047-0.031 0.109 0.016 0.172 0.047 0.047 0.125 0.078 0.172 0.031zM8.703 19.016v0c0.016-0.063-0.047-0.141-0.141-0.172s-0.172 0-0.203 0.063c-0.016 0.063 0.047 0.141 0.141 0.172s0.172 0 0.203-0.063zM9.359 19.063v0c0-0.063-0.078-0.125-0.187-0.125-0.094 0-0.156 0.063-0.156 0.125s0.078 0.125 0.172 0.125 0.172-0.063 0.172-0.125zM9.969 18.953v0c-0.016-0.063-0.109-0.094-0.203-0.078s-0.156 0.078-0.141 0.141 0.094 0.109 0.187 0.094 0.156-0.094 0.156-0.156zM20 14c0-4.422-3.578-8-8-8s-8 3.578-8 8c0 3.531 2.297 6.531 5.469 7.594 0.406 0.078 0.547-0.172 0.547-0.391 0-0.187 0-0.812-0.016-1.484 0 0-2.219 0.484-2.688-0.953 0 0-0.359-0.922-0.891-1.156 0 0-0.719-0.5 0.063-0.5 0 0 0.781 0.063 1.219 0.828 0.703 1.234 1.875 0.875 2.328 0.672 0.078-0.516 0.281-0.875 0.516-1.078-1.781-0.203-3.656-0.891-3.656-3.953 0-0.875 0.313-1.578 0.828-2.141-0.078-0.203-0.359-1.016 0.078-2.125 0.672-0.203 2.203 0.828 2.203 0.828 0.641-0.187 1.313-0.266 2-0.266s1.359 0.078 2 0.266c0 0 1.531-1.031 2.203-0.828 0.438 1.109 0.156 1.922 0.078 2.125 0.516 0.562 0.828 1.266 0.828 2.141 0 3.078-1.875 3.75-3.656 3.953 0.281 0.25 0.547 0.734 0.547 1.484 0 1.062-0.016 1.922-0.016 2.188 0 0.219 0.141 0.469 0.547 0.391 3.172-1.062 5.469-4.062 5.469-7.594zM24 6.5v15c0 2.484-2.016 4.5-4.5 4.5h-15c-2.484 0-4.5-2.016-4.5-4.5v-15c0-2.484 2.016-4.5 4.5-4.5h15c2.484 0 4.5 2.016 4.5 4.5z"></path>
</symbol>
<symbol id="home" viewBox="0 0 26 20">
<path d="M12.5659 4.03711L3.60288 11.4262C3.60288 11.4366 3.60026 11.452 3.59502 11.4729C3.58989 11.4936 3.58716 11.5087 3.58716 11.5194V19.0016C3.58716 19.2718 3.68593 19.5059 3.88341 19.7031C4.08084 19.9003 4.31463 19.9996 4.58484 19.9996H10.5705V14.0136H14.5615V19.9998H20.5471C20.8172 19.9998 21.0513 19.9008 21.2485 19.7031C21.446 19.5061 21.5451 19.2719 21.5451 19.0016V11.5194C21.5451 11.4779 21.5394 11.4466 21.5293 11.4262L12.5659 4.03711Z" fill="#FAC100"/>
<path d="M24.9582 9.74278L21.5446 6.90573V0.545712C21.5446 0.400317 21.4979 0.280746 21.4041 0.187164C21.311 0.0936912 21.1915 0.0469548 21.0458 0.0469548H18.0529C17.9073 0.0469548 17.7878 0.0936912 17.6942 0.187164C17.6007 0.280746 17.5541 0.400371 17.5541 0.545712V3.58538L13.7506 0.405285C13.4184 0.135077 13.0235 0 12.5662 0C12.1089 0 11.714 0.135077 11.3815 0.405285L0.173217 9.74278C0.069316 9.82577 0.0123697 9.93748 0.00177759 10.0778C-0.00875993 10.218 0.0275481 10.3405 0.110811 10.4443L1.07726 11.5979C1.16052 11.6914 1.2695 11.7485 1.40463 11.7694C1.52939 11.7799 1.65415 11.7434 1.77891 11.6603L12.5658 2.66567L23.3529 11.6603C23.4362 11.7328 23.5451 11.769 23.6802 11.769H23.7271C23.862 11.7485 23.9708 11.6909 24.0545 11.5977L25.021 10.4443C25.1041 10.3402 25.1405 10.218 25.1297 10.0776C25.1191 9.93765 25.0619 9.82594 24.9582 9.74278Z" fill="#FF9500"/>
</symbol>
<symbol id="profile" viewBox="0 0 30 42">
<g clip-path="url(#clip0_14_170)">
<path fill-rule="evenodd" clip-rule="evenodd" d="M14.9215 0.0455322C21.2042 0.0455322 26.0733 5.01252 26.0733 11.066C26.0733 17.1196 21.2042 22.0865 14.9215 22.0865C8.79581 22.0865 3.76963 17.1196 3.76963 11.066C3.76963 5.01252 8.79581 0.0455322 14.9215 0.0455322ZM30 28.7609V36.6771C30 43.8171 0 43.6619 0 36.6771V28.7609C0 24.7253 2.04188 21.7761 5.18325 19.9135C7.53927 22.5522 11.1518 24.2596 14.9215 24.2596C18.8482 24.2596 22.3037 22.5522 24.8168 19.9135C27.801 21.7761 30 24.7253 30 28.7609Z" fill="white"/>
</g>
<defs>
<clipPath id="clip0_14_170">
<rect width="30" height="42" fill="white"/>
</clipPath>
</symbol>
</defs>
</svg>