<svg aria-hidden="true" style="position:absolute;width:0;height:0;overflow:hidden" xmlns="http://www.w3.org/2000/svg"><defs><symbol id="apple" viewBox="0 0 18 18"><path d="M2.7 13.286c-.597 0-1.169.226-1.591.628a2.092 2.092 0 0 0-.659 1.515c0 .568.237 1.113.659 1.515.422.402.994.628 1.591.628h14.4a5.514 5.514 0 0 1 0-4.286H2.7Z" fill="#EAEFF0"/><path d="M2.7 17.572h14.4a5.527 5.527 0 0 1-.433-2.143H.45c0 .568.237 1.113.659 1.515.422.402.994.628 1.591.628Z" fill="#D9E1E2"/><path d="M9 12.862c.395.25.859.384 1.334.384.474 0 .939-.133 1.334-.384a4.649 4.649 0 0 0 1.872-2.285l.917-2.442c.23-.612.272-1.274.122-1.908a3.39 3.39 0 0 0-.968-1.673 3.651 3.651 0 0 0-1.644-.896 3.778 3.778 0 0 0-1.894.022L9 3.97l-1.073-.29a3.777 3.777 0 0 0-1.894-.023 3.651 3.651 0 0 0-1.645.896 3.39 3.39 0 0 0-.967 1.674 3.277 3.277 0 0 0 .122 1.907l.916 2.443a4.65 4.65 0 0 0 1.873 2.284c.395.251.86.385 1.334.385A2.49 2.49 0 0 0 9 12.861v.002Z" fill="#FAC100"/><path d="M12.15 12a7.016 7.016 0 0 1-3.021-.676A6.673 6.673 0 0 1 6.746 9.43a6.269 6.269 0 0 1-1.239-2.71 6.124 6.124 0 0 1 .167-2.951 3.53 3.53 0 0 0-2.008 1.764 3.27 3.27 0 0 0-.123 2.6l.916 2.443a4.65 4.65 0 0 0 1.873 2.284c.395.251.86.385 1.334.385A2.49 2.49 0 0 0 9 12.86c.395.251.86.385 1.334.385a2.49 2.49 0 0 0 1.334-.385 4.76 4.76 0 0 0 1.031-.888 6.322 6.322 0 0 1-.549.028Z" fill="#FF9500"/><path d="M9 3.124v-.576c0-.355.118-.7.336-.989.218-.288.525-.503.879-.616L11.829.43l-.54 1.537a1.7 1.7 0 0 1-.647.837 1.84 1.84 0 0 1-1.04.32H9Z" fill="#F87600"/><path d="M17.55 17.143h-.13a5.063 5.063 0 0 1 0-3.429h.13a.46.46 0 0 0 .318-.125.419.419 0 0 0 .132-.303.419.419 0 0 0-.132-.303.462.462 0 0 0-.318-.126h-5.139a5.074 5.074 0 0 0 1.553-2.135l.917-2.443a3.685 3.685 0 0 0 .195-1.847 3.757 3.757 0 0 0-.734-1.72 4.01 4.01 0 0 0-1.493-1.195 4.22 4.22 0 0 0-1.906-.391c.362-.259.633-.616.776-1.025l.537-1.537a.409.409 0 0 0-.108-.438.471.471 0 0 0-.46-.104l-1.614.514a2.27 2.27 0 0 0-.77.422 2.127 2.127 0 0 0-.533.675A8.048 8.048 0 0 0 8.04.348a.44.44 0 0 0-.286-.184.472.472 0 0 0-.338.063.44.44 0 0 0-.193.272.41.41 0 0 0 .066.322c.54.772.92 1.635 1.118 2.543l-.36-.097a4.249 4.249 0 0 0-2.193-.008 4.095 4.095 0 0 0-1.876 1.08 3.801 3.801 0 0 0-1.01 1.855c-.152.694-.1 1.415.15 2.083l.917 2.443c.314.829.85 1.566 1.553 2.137H2.7a2.77 2.77 0 0 0-1.91.754A2.51 2.51 0 0 0 0 15.428c0 .682.284 1.336.79 1.818A2.77 2.77 0 0 0 2.7 18h14.85a.46.46 0 0 0 .318-.125.419.419 0 0 0 .132-.305.419.419 0 0 0-.132-.303.462.462 0 0 0-.318-.125ZM9.45 2.548c0-.266.088-.524.25-.74.164-.215.394-.376.659-.46l.759-.241-.253.723a1.271 1.271 0 0 1-.483.626 1.374 1.374 0 0 1-.777.24H9.45v-.148Zm-4.567 7.885-.917-2.442a2.868 2.868 0 0 1-.118-1.623c.118-.54.39-1.04.787-1.443a3.187 3.187 0 0 1 1.461-.841 3.307 3.307 0 0 1 1.707.007l1.074.292c.08.022.166.022.246 0l1.074-.292a3.306 3.306 0 0 1 1.707-.007 3.187 3.187 0 0 1 1.461.841c.397.403.669.903.787 1.443a2.873 2.873 0 0 1-.118 1.623l-.917 2.442a4.246 4.246 0 0 1-1.7 2.072 2.02 2.02 0 0 1-1.083.314 2.02 2.02 0 0 1-1.084-.314.466.466 0 0 0-.5 0 2.02 2.02 0 0 1-1.084.314 2.02 2.02 0 0 1-1.084-.314 4.246 4.246 0 0 1-1.699-2.072ZM.9 15.43c0-.455.19-.891.527-1.213a1.847 1.847 0 0 1 1.273-.502h13.77a5.871 5.871 0 0 0 0 3.429H2.7c-.477 0-.935-.18-1.273-.502A1.674 1.674 0 0 1 .9 15.429Z" fill="#6F6F6F"/><path d="M11.25 14.572h-8.1a.462.462 0 0 0-.318.125A.419.419 0 0 0 2.7 15c0 .114.047.223.132.303.084.08.199.126.318.126h8.1c.12 0 .234-.046.318-.126A.419.419 0 0 0 11.7 15a.419.419 0 0 0-.132-.303.462.462 0 0 0-.318-.125Zm3.6.857h-1.8a.462.462 0 0 0-.318.125.419.419 0 0 0-.132.303c0 .114.047.223.132.303.084.08.199.126.318.126h1.8c.12 0 .234-.045.318-.126a.419.419 0 0 0 .132-.303.419.419 0 0 0-.132-.303.462.462 0 0 0-.318-.125Zm-8.302-5.1a.467.467 0 0 0 .22-.055.442.442 0 0 0 .163-.149.415.415 0 0 0 .02-.417l-.613-1.165a2.178 2.178 0 0 1-.122-.28l-.086-.248a2.22 2.22 0 0 1 0-1.46l.147-.42a.41.41 0 0 0-.025-.327.432.432 0 0 0-.26-.215.471.471 0 0 0-.483.126.424.424 0 0 0-.087.145l-.148.42a3.043 3.043 0 0 0 0 2.002l.087.248a2.9 2.9 0 0 0 .17.392l.612 1.166a.438.438 0 0 0 .167.173.467.467 0 0 0 .238.064Z" fill="#6F6F6F"/></symbol><symbol id="cup" viewBox="0 0 18 18"><path d="M6.075 16.2h5.85v-.9a1.35 1.35 0 0 1-1.35-1.35v-1.512h-3.15v1.512a1.35 1.35 0 0 1-1.35 1.35v.9Z" fill="#F87600"/><path d="M13.5 15.3h-9a1.8 1.8 0 0 0-1.8 1.8.9.9 0 0 0 .9.9h10.8a.9.9 0 0 0 .9-.9 1.8 1.8 0 0 0-1.8-1.8Z" fill="#FAC100"/><path d="M4.5 17.1a1.8 1.8 0 0 1 1.8-1.8H4.5a1.8 1.8 0 0 0-1.8 1.8.9.9 0 0 0 .9.9h1.8a.9.9 0 0 1-.9-.9Zm10.125-6.75h-.675a.45.45 0 0 1 0-.9h.675A2.478 2.478 0 0 0 17.1 6.975V4.95a.45.45 0 0 0-.45-.45H14.4a.45.45 0 0 1 0-.9h2.25A1.35 1.35 0 0 1 18 4.95v2.025a3.379 3.379 0 0 1-3.375 3.375Zm-10.575 0h-.675A3.379 3.379 0 0 1 0 6.975V4.95A1.35 1.35 0 0 1 1.35 3.6H3.6a.45.45 0 1 1 0 .9H1.35a.45.45 0 0 0-.45.45v2.025A2.478 2.478 0 0 0 3.375 9.45h.675a.45.45 0 1 1 0 .9Z" fill="#FF9500"/><path d="M13.95 0h-9.9A1.35 1.35 0 0 0 2.7 1.35v5.742A6.362 6.362 0 0 0 9 13.5a6.362 6.362 0 0 0 6.3-6.408V1.35A1.35 1.35 0 0 0 13.95 0Z" fill="#FAC100"/><path d="M10.8 12.15a6.362 6.362 0 0 1-6.3-6.408V0h-.45A1.35 1.35 0 0 0 2.7 1.35v5.742A6.362 6.362 0 0 0 9 13.5a6.225 6.225 0 0 0 4.572-2.012 6.165 6.165 0 0 1-2.772.662Z" fill="#FF9500"/><path d="M11.681 5.212a.386.386 0 0 0-.257-.25l-1.325-.39-.78-1.14a.4.4 0 0 0-.637 0L7.9 4.572l-1.325.39a.386.386 0 0 0-.196.604l.842 1.094-.038 1.38a.386.386 0 0 0 .515.375L9 7.953l1.3.462a.39.39 0 0 0 .407-.094.384.384 0 0 0 .109-.28l-.038-1.381.842-1.094a.386.386 0 0 0 .061-.354Z" fill="#FF9500"/></symbol><symbol id="game-first" viewBox="0 0 16 20"><path d="M14.793 3.693 11.783.67a2.257 2.257 0 0 0-1.61-.67h-7.9A2.275 2.275 0 0 0 0 2.273v15.454A2.275 2.275 0 0 0 2.273 20h10.909a2.275 2.275 0 0 0 2.272-2.273V5.296a2.26 2.26 0 0 0-.661-1.603Zm-.887.398h-2.088a.454.454 0 0 1-.454-.455v-2.1l2.542 2.555Zm.64 13.636a1.363 1.363 0 0 1-1.364 1.364H2.272A1.364 1.364 0 0 1 .91 17.727V2.273A1.364 1.364 0 0 1 2.273.909h7.9c.094 0 .189.01.281.03v2.697A1.364 1.364 0 0 0 11.819 5h2.692c.023.097.035.196.035.296v12.431Z" fill="#fff"/><path d="M12.273 7.273H4.545a.455.455 0 0 0 0 .909h7.728a.454.454 0 1 0 0-.91Zm0 2.272H3.182a.455.455 0 0 0 0 .91h9.09a.455.455 0 1 0 0-.91Zm0 2.273H3.182a.455.455 0 0 0 0 .91h9.09a.455.455 0 1 0 0-.91Zm0 2.272H3.182a.455.455 0 0 0 0 .91h9.09a.455.455 0 0 0 0-.91ZM10 16.364H3.182a.455.455 0 0 0 0 .909H10a.455.455 0 1 0 0-.91ZM3.136 5.658l.253-.507h1.41l.252.507a.456.456 0 0 0 .813-.407L4.501 2.524a.474.474 0 0 0-.814 0L2.324 5.251a.454.454 0 1 0 .813.407Zm1.207-1.416h-.5l.25-.5.25.5Zm1.793.076h.228v.227a.455.455 0 0 0 .909 0v-.227H7.5a.455.455 0 0 0 0-.909h-.227v-.227a.455.455 0 0 0-.91 0v.227h-.227a.455.455 0 1 0 0 .91Z" fill="#fff"/></symbol><symbol id="game-second" viewBox="0 0 20 20"><path d="M16.667 20H10a3.334 3.334 0 0 1-3.333-3.333v-3.334H2.963A2.967 2.967 0 0 1 0 10.37V2.963A2.967 2.967 0 0 1 2.963 0h7.407a2.966 2.966 0 0 1 2.963 2.963v3.704h3.334A3.333 3.333 0 0 1 20 10v6.667A3.333 3.333 0 0 1 16.667 20ZM2.963 2.222a.742.742 0 0 0-.74.741v7.407a.742.742 0 0 0 .74.741h3.704V10A3.333 3.333 0 0 1 10 6.667h1.111V2.963a.742.742 0 0 0-.741-.74H2.963Z" fill="#fff"/></symbol><symbol id="game-third" viewBox="0 0 23 20"><path fill-rule="evenodd" clip-rule="evenodd" d="M5.573 12.343a.194.194 0 0 1-.195-.195c0-.028.007-.052.017-.077a1.84 1.84 0 0 0 .08-.284c.017-.094.024-.198.024-.304a1.668 1.668 0 0 0-2.85-1.18 1.646 1.646 0 0 0-.49 1.18 1.695 1.695 0 0 0 .106.595.192.192 0 0 1-.112.252.183.183 0 0 1-.05.013H0v5.116c0 .699.287 1.333.748 1.795.46.46 1.096.746 1.795.746h5.114v-1.82l-.094.02a2.068 2.068 0 0 1-1.822-.558l-.01-.013a2.047 2.047 0 0 1-.605-1.457c0-.57.23-1.086.605-1.459a2.055 2.055 0 0 1 1.832-.568l.094.018v-1.82H5.573ZM22.303 5.7l-2.556-4.43A2.55 2.55 0 0 0 16.28.334l-4.44 2.564.914 1.575.069-.064a2.058 2.058 0 0 1 1.872-.422 2.06 2.06 0 0 1 .158 3.933l-.094.032.911 1.576 4.773-2.756.109-.062.005-.002L22.303 5.7Zm-1.358 1.637a1.589 1.589 0 0 0-.3-.232l-2.533 1.462c.005.126.02.252.055.375a1.731 1.731 0 0 0 1.217 1.26c.417.118.876.076 1.274-.153.398-.23.664-.605.77-1.025.107-.42.055-.884-.18-1.294l-.005-.007a1.714 1.714 0 0 0-.298-.386Zm-12.898 7.09a.194.194 0 0 1-.195.195h-.027v-.003h-.012l-.003-.002h-.005l-.004-.003h-.008l-.002-.002h-.003l-.005-.003h-.002l-.005-.002-.005-.002a1.747 1.747 0 0 0-.277-.077 1.669 1.669 0 0 0-1.976 1.644c0 .462.186.88.49 1.18l.01.01a1.655 1.655 0 0 0 1.476.455c.099-.017.193-.047.287-.081a.196.196 0 0 1 .254.11.24.24 0 0 1 .012.072V20h5.114c.7 0 1.336-.287 1.795-.746a2.533 2.533 0 0 0 .749-1.795v-5.116h-1.82l.02.096a2.06 2.06 0 0 1-.569 1.832 2.066 2.066 0 0 1-2.903.01l-.015-.01a2.06 2.06 0 0 1-.568-1.832l.02-.096H8.047v2.084Zm-.39-10.132H2.543a2.53 2.53 0 0 0-1.795.748A2.53 2.53 0 0 0 0 6.84v5.114h1.82l-.02-.094a2.07 2.07 0 0 1 .568-1.832A2.073 2.073 0 0 1 3.83 9.42a2.057 2.057 0 0 1 2.06 2.062c0 .126-.01.252-.033.376l-.022.094h1.822V9.809a.198.198 0 0 1 .291-.17c.12.066.247.118.384.155a1.637 1.637 0 0 0 1.59-.452c.303-.31.49-.74.49-1.217 0-.477-.187-.909-.49-1.22a1.645 1.645 0 0 0-1.961-.304.207.207 0 0 1-.109.033.194.194 0 0 1-.195-.196V4.295Z" fill="#fff"/></symbol><symbol id="github" viewBox="0 0 24 28"><path d="M8.109 18.75c.031-.047.016-.141-.047-.203-.078-.063-.172-.078-.219-.031-.031.047-.016.141.047.203.078.063.172.078.219.031zm-.437-.641c-.047-.063-.125-.094-.187-.063-.047.031-.047.125 0 .187.063.078.141.109.187.078.047-.031.047-.125 0-.203zm-.641-.625c.016-.031-.016-.094-.078-.125-.047-.016-.109-.016-.125.031-.031.047 0 .094.063.125.063.016.125.016.141-.031zm.328.36c.031-.031.031-.109-.031-.156-.047-.063-.125-.078-.156-.047-.047.047-.031.109.016.172.047.047.125.078.172.031zm1.344 1.172c.016-.063-.047-.141-.141-.172s-.172 0-.203.063c-.016.063.047.141.141.172s.172 0 .203-.063zm.656.047c0-.063-.078-.125-.187-.125-.094 0-.156.063-.156.125s.078.125.172.125.172-.063.172-.125zm.61-.11c-.016-.063-.109-.094-.203-.078s-.156.078-.141.141.094.109.187.094.156-.094.156-.156zM20 14c0-4.422-3.578-8-8-8s-8 3.578-8 8c0 3.531 2.297 6.531 5.469 7.594.406.078.547-.172.547-.391 0-.187 0-.812-.016-1.484 0 0-2.219.484-2.688-.953 0 0-.359-.922-.891-1.156 0 0-.719-.5.063-.5 0 0 .781.063 1.219.828.703 1.234 1.875.875 2.328.672.078-.516.281-.875.516-1.078-1.781-.203-3.656-.891-3.656-3.953 0-.875.313-1.578.828-2.141-.078-.203-.359-1.016.078-2.125.672-.203 2.203.828 2.203.828.641-.187 1.313-.266 2-.266s1.359.078 2 .266c0 0 1.531-1.031 2.203-.828.438 1.109.156 1.922.078 2.125.516.562.828 1.266.828 2.141 0 3.078-1.875 3.75-3.656 3.953.281.25.547.734.547 1.484 0 1.062-.016 1.922-.016 2.188 0 .219.141.469.547.391C17.703 20.533 20 17.533 20 14.001zm4-7.5v15c0 2.484-2.016 4.5-4.5 4.5h-15A4.502 4.502 0 0 1 0 21.5v-15C0 4.016 2.016 2 4.5 2h15C21.984 2 24 4.016 24 6.5z"/></symbol><symbol id="home" viewBox="0 0 26 20"><path d="m12.566 4.037-8.963 7.39c0 .01-.003.025-.008.046a.213.213 0 0 0-.008.046v7.483c0 .27.099.504.296.701a.96.96 0 0 0 .702.297h5.985v-5.986h3.992V20h5.985c.27 0 .504-.1.701-.297a.958.958 0 0 0 .297-.701v-7.483a.218.218 0 0 0-.016-.093l-8.963-7.389Z" fill="#FAC100"/><path d="m24.958 9.743-3.413-2.837V.546a.485.485 0 0 0-.14-.359.484.484 0 0 0-.36-.14h-2.992a.486.486 0 0 0-.359.14.486.486 0 0 0-.14.359v3.04L13.751.405A1.819 1.819 0 0 0 12.566 0a1.82 1.82 0 0 0-1.184.405L.173 9.743a.453.453 0 0 0-.171.335c-.01.14.026.263.109.366l.966 1.154c.084.093.193.15.328.171a.58.58 0 0 0 .374-.109l10.787-8.994 10.787 8.994a.48.48 0 0 0 .327.109h.047a.533.533 0 0 0 .328-.171l.966-1.154a.505.505 0 0 0 .109-.366.454.454 0 0 0-.172-.335Z" fill="#FF9500"/></symbol><symbol id="profile" viewBox="0 0 30 42"><g clip-path="url(#clip0_14_170)"><path fill-rule="evenodd" clip-rule="evenodd" d="M14.921.046c6.283 0 11.152 4.967 11.152 11.02 0 6.054-4.869 11.02-11.152 11.02-6.125 0-11.151-4.966-11.151-11.02C3.77 5.013 8.796.046 14.922.046ZM30 28.76v7.916c0 7.14-30 6.985-30 0V28.76c0-4.036 2.042-6.985 5.183-8.848 2.356 2.64 5.969 4.347 9.739 4.347 3.926 0 7.382-1.708 9.895-4.347C27.8 21.776 30 24.726 30 28.761Z" fill="#fff"/></g></symbol><symbol id="statistical" viewBox="0 0 36 36"><g clip-path="url(#clip0_14_210)"><path d="M33.75 11.25h-9v22.5H22.5V0h-9v33.75h-2.25V18h-9v15.75H0V36h36v-2.25h-2.25v-22.5Z" fill="#FAC100"/><path fill="#FAE100" d="M2 18h10v16H2z"/><path fill="#FF9500" d="M24 11h10v23H24z"/><path fill="#FF9500" d="M0 33h36v3H0z"/></g></symbol></defs></svg>